<svg width="16" height="17" viewBox="0 0 16 17" fill="none" xmlns="http://www.w3.org/2000/svg">
<path d="M11.506 10.8871C12.7618 12.1429 14.0345 13.4088 15.3037 14.6781C15.4422 14.8165 15.5839 14.9549 15.719 15.0967C16.0937 15.495 16.1004 15.917 15.7055 16.2782C15.3341 16.6225 14.9425 16.5449 14.5881 16.1904C13.3998 14.9954 12.2014 13.8105 11.0166 12.6122C10.8039 12.3961 10.6351 12.1328 10.4798 11.9336C6.78676 13.9962 3.4414 13.5472 1.34845 10.823C-0.612857 8.2642 -0.417064 4.74331 1.82105 2.43093C4.03553 0.138801 7.55305 -0.144761 10.1996 1.7524C13.015 3.77109 13.4977 7.06244 11.5027 10.8871H11.506ZM11.1786 6.92066C11.1853 4.22682 9.06538 2.09335 6.38842 2.10348C3.74859 2.11361 1.62863 4.22344 1.60163 6.86665C1.57462 9.48284 3.71146 11.6501 6.33441 11.6771C9.0485 11.7041 11.1752 9.61787 11.182 6.92403L11.1786 6.92066Z" fill="white"/>
</svg>
