<svg width="8" height="6" viewBox="0 0 8 6" fill="none" xmlns="http://www.w3.org/2000/svg">
<path d="M4.00338 3.75351C4.1347 3.58517 4.20455 3.4748 4.29396 3.38469C5.16222 2.51154 6.03468 1.64258 6.90503 0.770828C7.04753 0.62833 7.19213 0.506089 7.41286 0.506788C7.64616 0.507486 7.8152 0.60528 7.92557 0.804358C8.03803 1.00693 8.02057 1.2074 7.88995 1.39531C7.84384 1.46167 7.78447 1.51825 7.72719 1.57622C6.65916 2.64426 5.58203 3.70322 4.52867 4.78523C4.19407 5.1289 3.79173 5.11563 3.47599 4.79221C2.42123 3.7116 1.34551 2.65125 0.276073 1.58461C0.0776928 1.38623 -0.0773777 1.17946 0.0413708 0.877005C0.181075 0.520759 0.589013 0.388039 0.903347 0.605279C0.997647 0.670242 1.07728 0.758256 1.1597 0.839983C2.01469 1.69358 2.86968 2.54717 3.72257 3.40355C3.8043 3.48528 3.86856 3.58447 4.00408 3.75421L4.00338 3.75351Z" fill="black"/>
</svg>
