<!DOCTYPE svg PUBLIC "-//W3C//DTD SVG 1.1//EN" "http://www.w3.org/Graphics/SVG/1.1/DTD/svg11.dtd">
<!-- Uploaded to: SVG Repo, www.svgrepo.com, Transformed by: SVG Repo Mixer Tools -->
<svg width="64px" height="64px" viewBox="-614.4 -614.4 2252.80 2252.80" xmlns="http://www.w3.org/2000/svg" fill="#d4a107" stroke="#d4a107" stroke-width="0.01024">
<g id="SVGRepo_bgCarrier" stroke-width="0" transform="translate(102.39999999999998,102.39999999999998), scale(0.8)">
<rect x="-614.4" y="-614.4" width="2252.80" height="2252.80" rx="1126.4" fill="#cecece" strokewidth="0"/>
</g>
<g id="SVGRepo_tracerCarrier" stroke-linecap="round" stroke-linejoin="round" stroke="#CCCCCC" stroke-width="12.288"/>
<g id="SVGRepo_iconCarrier">
<path fill="#d4a107" d="M832 512a32 32 0 1 1 64 0v352a32 32 0 0 1-32 32H160a32 32 0 0 1-32-32V160a32 32 0 0 1 32-32h352a32 32 0 0 1 0 64H192v640h640V512z"/>
<path fill="#d4a107" d="m469.952 554.24 52.8-7.552L847.104 222.4a32 32 0 1 0-45.248-45.248L477.44 501.44l-7.552 52.8zm422.4-422.4a96 96 0 0 1 0 135.808l-331.84 331.84a32 32 0 0 1-18.112 9.088L436.8 623.68a32 32 0 0 1-36.224-36.224l15.104-105.6a32 32 0 0 1 9.024-18.112l331.904-331.84a96 96 0 0 1 135.744 0z"/>
</g>
</svg>