<svg width="48" height="48" viewBox="0 0 48 48" fill="none" xmlns="http://www.w3.org/2000/svg">
<path d="M8 42C6.33333 42 4.91667 41.4167 3.75 40.25C2.58333 39.0833 2 37.6667 2 36C2 35.1333 2.16667 34.308 2.5 33.524C2.83333 32.74 3.33333 32.0653 4 31.5V22H8V10H24L33.4 32.15C33.6 32.6167 33.75 33.0833 33.85 33.55C33.95 34.0167 34 34.5 34 35C34 36.9333 33.3167 38.5833 31.95 39.95C30.5833 41.3167 28.9333 42 27 42C25.6333 42 24.3747 41.642 23.224 40.926C22.0733 40.21 21.216 39.2347 20.652 38H13.652C13.2187 39.2 12.4853 40.1667 11.452 40.9C10.4187 41.6333 9.268 42 8 42ZM36 40V8H40V36H46V40H36ZM8 38C8.56667 38 9.042 37.808 9.426 37.424C9.81 37.04 10.0013 36.5653 10 36C10 35.4333 9.808 34.958 9.424 34.574C9.04 34.19 8.56533 33.9987 8 34C7.43333 34 6.958 34.192 6.574 34.576C6.19 34.96 5.99867 35.4347 6 36C6 36.5667 6.192 37.042 6.576 37.426C6.96 37.81 7.43467 38.0013 8 38ZM27 38C27.8333 38 28.542 37.708 29.126 37.124C29.71 36.54 30.0013 35.832 30 35C30 34.1667 29.708 33.458 29.124 32.874C28.54 32.29 27.832 31.9987 27 32C26.1667 32 25.458 32.292 24.874 32.876C24.29 33.46 23.9987 34.168 24 35C24 35.8333 24.292 36.542 24.876 37.126C25.46 37.71 26.168 38.0013 27 38ZM17.85 28H27.3L21.35 14H12V22L17.85 28Z" fill="#8B8B8B"/>
</svg>
