<svg width="24" height="25" viewBox="0 0 24 25" fill="none" xmlns="http://www.w3.org/2000/svg">
<path d="M20.6101 19.6903C21.2368 18.8502 21.6669 17.8802 21.8686 16.8517C22.0703 15.8232 22.0385 14.7626 21.7755 13.7481C21.5125 12.7335 21.025 11.791 20.3491 10.99C19.6732 10.1891 18.826 9.55011 17.8701 9.1203C17.6619 7.9224 17.1834 6.78772 16.4709 5.80247C15.7585 4.81722 14.8308 4.00733 13.7585 3.43433C12.6861 2.86133 11.4972 2.5403 10.2822 2.49563C9.06713 2.45097 7.8579 2.68384 6.74635 3.17656C5.6348 3.66927 4.65018 4.40887 3.86731 5.33915C3.08443 6.26943 2.5239 7.36592 2.22831 8.54529C1.93271 9.72467 1.90982 10.9559 2.16139 12.1455C2.41295 13.335 2.93235 14.4516 3.68011 15.4103L2.29011 16.7903C2.15136 16.9309 2.05736 17.1095 2.01998 17.3035C1.98261 17.4975 2.00353 17.6982 2.08011 17.8803C2.15513 18.0629 2.28253 18.2192 2.44625 18.3296C2.60997 18.4399 2.80269 18.4993 3.00011 18.5003H8.69011C9.25676 19.6949 10.1501 20.7046 11.2669 21.4125C12.3836 22.1204 13.6779 22.4975 15.0001 22.5003H21.0001C21.1975 22.4993 21.3903 22.4399 21.554 22.3296C21.7177 22.2192 21.8451 22.0629 21.9201 21.8803C21.9967 21.6982 22.0176 21.4975 21.9802 21.3035C21.9429 21.1095 21.8489 20.9309 21.7101 20.7903L20.6101 19.6903ZM8.00011 15.5003C8.00149 15.8352 8.02823 16.1695 8.08011 16.5003H5.41011L5.76011 16.1603C5.85384 16.0673 5.92824 15.9567 5.979 15.8349C6.02977 15.713 6.05591 15.5823 6.05591 15.4503C6.05591 15.3183 6.02977 15.1876 5.979 15.0657C5.92824 14.9439 5.85384 14.8333 5.76011 14.7403C5.19967 14.186 4.75536 13.5255 4.45317 12.7975C4.15097 12.0695 3.99695 11.2885 4.00011 10.5003C4.00011 8.909 4.63225 7.38287 5.75747 6.25766C6.88269 5.13244 8.40881 4.5003 10.0001 4.5003C11.2418 4.49284 12.4546 4.87468 13.468 5.59216C14.4815 6.30964 15.2446 7.32667 15.6501 8.5003C15.4301 8.5003 15.2201 8.5003 15.0001 8.5003C13.1436 8.5003 11.3631 9.2378 10.0504 10.5506C8.73761 11.8633 8.00011 13.6438 8.00011 15.5003ZM18.5401 20.5003L18.5901 20.5503H15.0001C13.8435 20.5482 12.7233 20.1452 11.8304 19.4099C10.9376 18.6746 10.3273 17.6525 10.1035 16.5176C9.87973 15.3828 10.0563 14.2055 10.6032 13.1863C11.1501 12.1671 12.0334 11.369 13.1027 10.928C14.172 10.487 15.3611 10.4304 16.4674 10.7677C17.5738 11.1051 18.529 11.8156 19.1703 12.7782C19.8115 13.7409 20.0992 14.8961 19.9843 16.047C19.8694 17.1979 19.359 18.2734 18.5401 19.0903C18.3517 19.2749 18.2439 19.5265 18.2401 19.7903C18.2407 19.9226 18.2675 20.0535 18.319 20.1754C18.3705 20.2972 18.4456 20.4077 18.5401 20.5003Z" fill="#B4B4B4"/>
</svg>
