<svg width="16" height="16" viewBox="0 0 16 16" fill="none" xmlns="http://www.w3.org/2000/svg">
<path d="M13.6702 3.53293C13.6569 3.5196 13.6569 3.51961 13.6436 3.50627L12.2169 2.25292C12.0169 2.06625 11.7369 1.97293 11.4436 1.9996C11.1769 2.02627 10.9369 2.13292 10.7502 2.31959C10.7369 2.33292 10.7236 2.34626 10.7102 2.35959L9.29689 4.13293C8.92356 4.53293 8.93689 5.14627 9.32356 5.53293C9.35023 5.5596 9.37689 5.58627 9.40356 5.5996L10.1236 6.07961C10.0702 6.33295 9.69689 7.05294 8.37689 8.37294C7.05689 9.69294 6.33689 10.0663 6.08355 10.1196L5.60356 9.3996C5.59022 9.37293 5.56356 9.34625 5.53689 9.31959C5.15022 8.93292 4.53689 8.93293 4.13689 9.29293L2.36356 10.7063C2.35023 10.7196 2.33689 10.7329 2.32356 10.7463C1.92356 11.1463 1.89689 11.8129 2.25689 12.1996L3.51022 13.6263C3.52356 13.6396 3.52356 13.6396 3.53689 13.6529C3.77689 13.8929 4.15023 13.9863 4.56356 13.9863C5.29689 13.9863 6.13689 13.6929 6.57689 13.5196C7.43022 13.1863 9.09689 12.3729 10.7502 10.7196C11.9769 9.49292 12.9636 8.01295 13.5502 6.54628C13.8036 5.87961 14.3636 4.22627 13.6702 3.53293ZM9.99023 9.98625C7.52356 12.4529 4.75022 13.1329 4.28355 12.8929L3.07022 11.5063L4.80356 10.1329L5.27022 10.8396C5.28356 10.8529 5.28356 10.8663 5.29689 10.8796C5.45689 11.0796 5.68355 11.1863 5.95022 11.1996C6.20355 11.2129 6.99022 11.2529 9.11022 9.13293C9.63022 8.61293 11.2302 7.01294 11.1769 5.97294C11.1636 5.70627 11.0436 5.47959 10.8569 5.31959C10.8436 5.30625 10.8302 5.29293 10.8169 5.29293L10.1102 4.82626L11.4836 3.09293L12.8702 4.30627C13.1369 4.74627 12.4569 7.51959 9.99023 9.98625Z" fill="#F5A623"/>
</svg>
