<svg width="24" height="25" viewBox="0 0 24 25" fill="none" xmlns="http://www.w3.org/2000/svg">
<path d="M15.506 14.8871C16.7618 16.1429 18.0345 17.4088 19.3037 18.6781C19.4422 18.8165 19.5839 18.9549 19.719 19.0967C20.0937 19.495 20.1004 19.917 19.7055 20.2782C19.3341 20.6225 18.9425 20.5449 18.5881 20.1904C17.3998 18.9954 16.2014 17.8105 15.0166 16.6122C14.8039 16.3961 14.6351 16.1328 14.4798 15.9336C10.7868 17.9962 7.4414 17.5472 5.34845 14.823C3.38714 12.2642 3.58294 8.74331 5.82105 6.43093C8.03553 4.1388 11.5531 3.85524 14.1996 5.7524C17.015 7.77109 17.4977 11.0624 15.5027 14.8871H15.506ZM15.1786 10.9207C15.1853 8.22682 13.0654 6.09335 10.3884 6.10348C7.74859 6.11361 5.62863 8.22344 5.60163 10.8666C5.57462 13.4828 7.71146 15.6501 10.3344 15.6771C13.0485 15.7041 15.1752 13.6179 15.182 10.924L15.1786 10.9207Z" fill="black"/>
</svg>
