<svg width="24" height="24" viewBox="0 0 24 24" fill="none" xmlns="http://www.w3.org/2000/svg">
<path d="M20.4898 7.52045C20.4841 7.49408 20.4841 7.46681 20.4898 7.44045C20.485 7.41737 20.485 7.39353 20.4898 7.37045V7.28045L20.4298 7.13045C20.4054 7.08952 20.3751 7.05244 20.3398 7.02045L20.2498 6.94045H20.1998L16.2598 4.45045L12.5398 2.15045C12.4538 2.08218 12.3553 2.03124 12.2498 2.00045H12.1698C12.0804 1.98553 11.9892 1.98553 11.8998 2.00045H11.7998C11.6837 2.02614 11.5723 2.07001 11.4698 2.13045L3.99982 6.78045L3.90982 6.85045L3.81982 6.93045L3.71982 7.00045L3.66982 7.06045L3.60982 7.21045V7.30045V7.36045C3.60011 7.42676 3.60011 7.49413 3.60982 7.56045V16.2904C3.60948 16.4604 3.65246 16.6276 3.7347 16.7763C3.81693 16.9251 3.93571 17.0504 4.07982 17.1404L11.5798 21.7804L11.7298 21.8404H11.8098C11.979 21.8941 12.1606 21.8941 12.3298 21.8404H12.4098L12.5598 21.7804L19.9998 17.2104C20.1439 17.1204 20.2627 16.9951 20.345 16.8463C20.4272 16.6976 20.4702 16.5304 20.4698 16.3604V7.63045C20.4698 7.63045 20.4898 7.56045 20.4898 7.52045ZM11.9998 4.17045L13.7798 5.27045L8.18982 8.73045L6.39982 7.63045L11.9998 4.17045ZM10.9998 19.1704L5.49982 15.8104V9.42045L10.9998 12.8204V19.1704ZM11.9998 11.0604L10.0898 9.91045L15.6798 6.44045L17.5998 7.63045L11.9998 11.0604ZM18.4998 15.7804L12.9998 19.2004V12.8204L18.4998 9.42045V15.7804Z" fill="#9F9F9F"/>
</svg>
