<svg width="24" height="25" viewBox="0 0 24 25" fill="none" xmlns="http://www.w3.org/2000/svg">
<path d="M8 6.5C8.19778 6.5 8.39112 6.44135 8.55557 6.33147C8.72002 6.22159 8.84819 6.06541 8.92388 5.88268C8.99957 5.69996 9.01937 5.49889 8.98079 5.30491C8.9422 5.11093 8.84696 4.93275 8.70711 4.79289C8.56725 4.65304 8.38907 4.5578 8.19509 4.51921C8.00111 4.48063 7.80004 4.50043 7.61732 4.57612C7.43459 4.65181 7.27841 4.77998 7.16853 4.94443C7.05865 5.10888 7 5.30222 7 5.5C7 5.76522 7.10536 6.01957 7.29289 6.20711C7.48043 6.39464 7.73478 6.5 8 6.5ZM21 19.5H14.82C14.6707 19.0806 14.4299 18.6997 14.1151 18.3849C13.8003 18.0701 13.4194 17.8293 13 17.68V15.5H17C17.7956 15.5 18.5587 15.1839 19.1213 14.6213C19.6839 14.0587 20 13.2956 20 12.5V10.5C19.9956 9.75994 19.7178 9.04764 19.22 8.5C19.7178 7.95236 19.9956 7.24005 20 6.5V4.5C20 3.70435 19.6839 2.94129 19.1213 2.37868C18.5587 1.81607 17.7956 1.5 17 1.5H7C6.20435 1.5 5.44129 1.81607 4.87868 2.37868C4.31607 2.94129 4 3.70435 4 4.5V6.5C4.00441 7.24005 4.28221 7.95236 4.78 8.5C4.28221 9.04764 4.00441 9.75994 4 10.5V12.5C4 13.2956 4.31607 14.0587 4.87868 14.6213C5.44129 15.1839 6.20435 15.5 7 15.5H11V17.68C10.5806 17.8293 10.1997 18.0701 9.8849 18.3849C9.57011 18.6997 9.32932 19.0806 9.18 19.5H3C2.73478 19.5 2.48043 19.6054 2.29289 19.7929C2.10536 19.9804 2 20.2348 2 20.5C2 20.7652 2.10536 21.0196 2.29289 21.2071C2.48043 21.3946 2.73478 21.5 3 21.5H9.18C9.3902 22.0792 9.77363 22.5795 10.2782 22.9332C10.7827 23.2868 11.3839 23.4765 12 23.4765C12.6161 23.4765 13.2173 23.2868 13.7218 22.9332C14.2264 22.5795 14.6098 22.0792 14.82 21.5H21C21.2652 21.5 21.5196 21.3946 21.7071 21.2071C21.8946 21.0196 22 20.7652 22 20.5C22 20.2348 21.8946 19.9804 21.7071 19.7929C21.5196 19.6054 21.2652 19.5 21 19.5ZM6 4.5C6 4.23478 6.10536 3.98043 6.29289 3.79289C6.48043 3.60536 6.73478 3.5 7 3.5H17C17.2652 3.5 17.5196 3.60536 17.7071 3.79289C17.8946 3.98043 18 4.23478 18 4.5V6.5C18 6.76522 17.8946 7.01957 17.7071 7.20711C17.5196 7.39464 17.2652 7.5 17 7.5H7C6.73478 7.5 6.48043 7.39464 6.29289 7.20711C6.10536 7.01957 6 6.76522 6 6.5V4.5ZM7 13.5C6.73478 13.5 6.48043 13.3946 6.29289 13.2071C6.10536 13.0196 6 12.7652 6 12.5V10.5C6 10.2348 6.10536 9.98043 6.29289 9.79289C6.48043 9.60536 6.73478 9.5 7 9.5H17C17.2652 9.5 17.5196 9.60536 17.7071 9.79289C17.8946 9.98043 18 10.2348 18 10.5V12.5C18 12.7652 17.8946 13.0196 17.7071 13.2071C17.5196 13.3946 17.2652 13.5 17 13.5H7ZM12 21.5C11.8022 21.5 11.6089 21.4414 11.4444 21.3315C11.28 21.2216 11.1518 21.0654 11.0761 20.8827C11.0004 20.7 10.9806 20.4989 11.0192 20.3049C11.0578 20.1109 11.153 19.9327 11.2929 19.7929C11.4327 19.653 11.6109 19.5578 11.8049 19.5192C11.9989 19.4806 12.2 19.5004 12.3827 19.5761C12.5654 19.6518 12.7216 19.78 12.8315 19.9444C12.9414 20.1089 13 20.3022 13 20.5C13 20.7652 12.8946 21.0196 12.7071 21.2071C12.5196 21.3946 12.2652 21.5 12 21.5ZM8 10.5C7.80222 10.5 7.60888 10.5586 7.44443 10.6685C7.27998 10.7784 7.15181 10.9346 7.07612 11.1173C7.00043 11.3 6.98063 11.5011 7.01921 11.6951C7.0578 11.8891 7.15304 12.0673 7.29289 12.2071C7.43275 12.347 7.61093 12.4422 7.80491 12.4808C7.99889 12.5194 8.19996 12.4996 8.38268 12.4239C8.56541 12.3482 8.72159 12.22 8.83147 12.0556C8.94135 11.8911 9 11.6978 9 11.5C9 11.2348 8.89464 10.9804 8.70711 10.7929C8.51957 10.6054 8.26522 10.5 8 10.5Z" fill="#D5A107"/>
</svg>
