<svg width="81" height="81" viewBox="0 0 81 81" fill="none" xmlns="http://www.w3.org/2000/svg">
<mask id="mask0_496_7261" style="mask-type:luminance" maskUnits="userSpaceOnUse" x="0" y="0" width="81" height="81">
<path d="M81 0H0V81H81V0Z" fill="white"/>
</mask>
<g mask="url(#mask0_496_7261)">
<mask id="mask1_496_7261" style="mask-type:luminance" maskUnits="userSpaceOnUse" x="0" y="0" width="81" height="81">
<path d="M0 0H81V81H0V0Z" fill="white"/>
</mask>
<g mask="url(#mask1_496_7261)">
<g opacity="0.03">
<path d="M44.9293 25.0288C37.6393 24.8668 31.8883 28.7548 29.2153 34.9918C26.5423 34.8298 21.3982 37.9127 20.6293 44.0638C19.9003 49.8958 23.1403 54.8368 27.8383 56.1328C27.9193 56.1328 52.2193 56.1328 52.2193 56.1328H64.4503C64.4503 56.1328 73.9273 54.1078 74.9803 47.7898C76.0333 41.4718 72.7123 34.1818 61.2913 33.6958C60.0763 33.8578 58.6993 34.3438 58.6993 34.3438C58.6993 34.3438 56.7553 24.9478 44.9293 25.0288Z" fill="black"/>
</g>
<path d="M44.9293 20.1689C37.6393 20.0069 31.8883 23.8949 29.2153 30.1319C26.5423 29.9699 21.3982 33.0528 20.6293 39.2039C19.9003 45.0359 23.1403 49.9769 27.8383 51.2729C27.9193 51.2729 52.2193 51.2729 52.2193 51.2729H64.4503C64.4503 51.2729 73.9273 49.2479 74.9803 42.9299C76.0333 36.6119 72.7123 29.3219 61.2913 28.8359C60.0763 28.9979 58.6993 29.4839 58.6993 29.4839C58.6993 29.4839 56.7553 20.0879 44.9293 20.1689Z" fill="#EAEAF5"/>
<g opacity="0.03">
<path d="M43.74 37.9079C35.397 38.7179 33.372 43.6589 32.886 44.5499C32.4 45.4409 31.833 46.2509 31.833 46.2509C31.833 46.2509 22.599 42.2819 19.278 52.0829C17.982 59.5349 24.381 63.5039 26.649 63.6659C28.836 63.6659 54.756 63.6659 54.756 63.6659C54.756 63.6659 65.529 61.7219 61.803 50.5439C60.183 45.7649 55.242 45.4409 55.242 45.4409C55.242 45.4409 52.083 37.0979 43.74 37.9079Z" fill="black"/>
</g>
<path d="M43.74 34.344C35.397 35.154 33.372 40.095 32.886 40.986C32.4 41.877 31.833 42.687 31.833 42.687C31.833 42.687 22.599 38.718 19.278 48.519C17.982 55.971 24.381 59.94 26.649 60.102C28.836 60.102 54.756 60.102 54.756 60.102C54.756 60.102 65.529 58.158 61.803 46.98C60.183 42.201 55.242 41.877 55.242 41.877C55.242 41.877 52.083 33.534 43.74 34.344Z" fill="#FBFBFB"/>
<g opacity="0.03">
<path d="M17.7841 26.4908C22.1578 26.9273 23.2193 29.5899 23.4741 30.07C23.7289 30.5502 24.0261 30.9867 24.0261 30.9867C24.0261 30.9867 28.8669 28.8478 30.6078 34.1294C31.2872 38.1451 27.9327 40.284 26.7437 40.3713C25.5972 40.3713 12.0092 40.3713 12.0092 40.3713C12.0092 40.3713 6.36166 39.3237 8.31494 33.3001C9.16419 30.7248 11.7544 30.5502 11.7544 30.5502C11.7544 30.5502 13.4105 26.0543 17.7841 26.4908Z" fill="black"/>
</g>
<path d="M17.7841 23.2505C22.1578 23.687 23.2193 26.3496 23.4741 26.8298C23.7289 27.3099 24.0261 27.7464 24.0261 27.7464C24.0261 27.7464 28.8669 25.6076 30.6078 30.8892C31.2872 34.9049 27.9327 37.0437 26.7437 37.131C25.5972 37.131 12.0092 37.131 12.0092 37.131C12.0092 37.131 6.36166 36.0834 8.31494 30.0598C9.16419 27.4845 11.7544 27.3099 11.7544 27.3099C11.7544 27.3099 13.4105 22.8141 17.7841 23.2505Z" fill="#FBFBFB"/>
<path d="M41.0468 43.3535L31.8533 52.2838L35.2553 55.625L38.9205 51.4535L38.799 65.6488H43.3553L43.1123 51.5548L46.98 55.6655L50.1795 52.4863L41.0468 43.3535Z" fill="#DDDDDD"/>
</g>
</g>
</svg>
