<svg width="16" height="16" viewBox="0 0 16 16" fill="none" xmlns="http://www.w3.org/2000/svg">
<path d="M8.00345 9.48029C9.97678 9.48029 11.5901 7.86695 11.5901 5.88029C11.5901 3.89362 9.97678 2.28029 8.00345 2.28029C6.03012 2.28029 4.41678 3.89362 4.41678 5.88029C4.41678 7.86695 6.03012 9.48029 8.00345 9.48029ZM8.00345 3.33361C9.39012 3.33361 10.5234 4.46694 10.5234 5.86694C10.5234 7.26694 9.39012 8.40027 8.00345 8.40027C6.61678 8.40027 5.48345 7.26694 5.48345 5.86694C5.48345 4.46694 6.61678 3.33361 8.00345 3.33361ZM9.67012 9.82693C9.49678 9.7736 9.29678 9.81361 9.16345 9.93361L8.00345 10.9203L6.84345 9.93361C6.69678 9.81361 6.51012 9.7736 6.33678 9.82693C5.59012 10.0669 1.87012 11.3469 1.87012 13.2003C1.87012 13.4936 2.11012 13.7336 2.40345 13.7336H13.6034C13.8968 13.7336 14.1368 13.4936 14.1368 13.2003C14.1368 11.3469 10.4168 10.0669 9.67012 9.82693ZM3.21678 12.6669C3.80345 12.0403 5.21678 11.347 6.39012 10.947L7.65678 12.0269C7.85678 12.2003 8.15012 12.2003 8.35012 12.0269L9.61678 10.947C10.7901 11.3603 12.2034 12.0536 12.7901 12.6669H3.21678Z" fill="#F5A623"/>
</svg>
